<?xml version="1.0" encoding="utf-8"?>
<!-- Generator: Adobe Illustrator 16.0.0, SVG Export Plug-In . SVG Version: 6.00 Build 0)  -->
<!DOCTYPE svg PUBLIC "-//W3C//DTD SVG 1.1//EN" "http://www.w3.org/Graphics/SVG/1.1/DTD/svg11.dtd">
<svg version="1.1" id="Layer_1" xmlns="http://www.w3.org/2000/svg" xmlns:xlink="http://www.w3.org/1999/xlink" x="0px" y="0px"
	 width="390px" height="90px" viewBox="0 0 390 90" enable-background="new 0 0 390 90" xml:space="preserve">
<g>
	<g>
		<path fill="#231F20" d="M114.473,34.062h-7.514l-1.311-12.975c-0.175-1.748-0.437-4.237-0.524-5.723h-0.35
			c-0.437,1.66-0.873,3.932-1.354,5.723l-3.408,12.975h-5.154l-3.539-13.019c-0.437-1.616-0.961-3.538-1.311-5.679h-0.437
			c-0.044,1.66-0.219,3.932-0.394,5.592l-1.311,13.105h-6.902l3.539-29.794h8.388l3.146,11.009c0.523,1.748,1.179,3.845,1.572,5.461
			h0.131c0.438-1.616,1.093-3.888,1.529-5.461l2.971-11.009h8.344L114.473,34.062z"/>
		<path fill="#231F20" d="M137.107,34.062h-6.99v-2.49h-0.262c-1.267,1.748-2.971,3.189-6.291,3.189
			c-3.102,0-8.824-2.621-8.824-11.184c0-6.902,4.631-10.966,9.393-10.966c2.971,0,4.762,1.442,5.723,3.015h0.262v-2.49h6.99V34.062z
			 M126.229,28.383c2.053,0,3.844-1.922,3.844-4.718c0-2.883-1.659-4.806-3.844-4.806c-2.709,0-4.02,2.403-4.02,4.762
			C122.21,26.155,123.434,28.383,126.229,28.383z"/>
		<path fill="#231F20" d="M155.021,19.646c-0.83-0.131-1.878-0.263-3.232-0.263c-3.801,0-5.155,2.229-5.155,5.067v9.611h-7.383
			V13.137h7.121v3.582h0.218c1.398-2.446,3.583-4.149,6.422-4.149c0.918,0,1.398,0.043,2.01,0.175V19.646z"/>
		<path fill="#231F20" d="M165.509,26.286l-0.918,0.918v6.858h-7.383V2.608h7.383v16.558l5.374-6.029h8.868l-8.213,8.65
			l9.393,12.275h-8.825L165.509,26.286z"/>
		<path fill="#231F20" d="M193.253,10.953h-6.684V4.269h21.23v6.685h-6.684v23.109h-7.863V10.953z"/>
		<path fill="#231F20" d="M225.451,34.062H218.2v-2.621h-0.176c-1.616,2.446-3.67,3.276-5.984,3.276
			c-3.277,0-7.427-1.922-7.427-9.043V13.137h7.383v11.446c0,2.358,1.136,3.669,2.884,3.669c1.965,0,3.188-1.397,3.188-4.106V13.137
			h7.383V34.062z"/>
		<path fill="#231F20" d="M227.901,13.137h2.402V6.453h7.383v6.684h4.588v6.203h-4.588v6.422c0,1.879,0.568,2.359,2.271,2.359
			c0.699,0,1.791-0.175,2.49-0.35v5.941c-1.354,0.394-3.363,0.655-4.586,0.655c-5.374,0-7.559-2.708-7.559-7.602V19.34h-2.402
			V13.137z"/>
		<path fill="#231F20" d="M244.897,2.608h7.383v13.149h0.174c1.18-2.184,3.496-3.276,5.941-3.276c5.199,0,7.776,3.626,7.776,9.698
			v11.883h-7.383V22.617c0-2.447-1.179-3.67-3.102-3.67c-1.835,0-3.407,1.397-3.407,4.106v11.009h-7.383V2.608z"/>
		<path fill="#231F20" d="M268.841,2.564h7.383v6.597h-7.383V2.564z M268.841,13.137h7.383v20.926h-7.383V13.137z"/>
		<path fill="#231F20" d="M279.981,2.608h7.383v31.454h-7.383V2.608z"/>
		<path fill="#231F20" d="M291.122,2.608h7.383v31.454h-7.383V2.608z"/>
	</g>
	<g>
		<path fill="#FFFFFF" d="M25.606,69h-7.121c-0.306-1.484-1.529-2.402-3.102-2.402c-2.709,0-3.714,2.359-3.714,4.98
			c0,2.708,1.137,5.023,3.845,5.023c1.704,0,2.84-1.136,3.232-2.577h7.252c-1.223,5.023-4.631,8.78-10.615,8.78
			C9.355,82.805,4.2,78.523,4.2,71.534c0-6.116,4.237-11.097,11.271-11.097C21.456,60.438,24.951,64.851,25.606,69z"/>
		<path fill="#FFFFFF" d="M43.346,67.646c-0.83-0.131-1.879-0.263-3.232-0.263c-3.801,0-5.155,2.229-5.155,5.067v9.611h-7.383
			V61.137h7.121v3.582h0.218c1.398-2.446,3.582-4.149,6.422-4.149c0.918,0,1.398,0.043,2.01,0.175V67.646z"/>
		<path fill="#FFFFFF" d="M66.196,71.534c0,0.524,0,0.961-0.088,1.747H51.43c0,2.359,1.835,4.281,4.238,4.281
			c1.572,0,2.839-0.786,3.451-1.966h6.814c-1.354,4.063-4.543,7.208-10.397,7.208c-6.028,0-11.184-4.281-11.184-11.271
			c0-6.116,3.845-11.097,11.009-11.097C61.783,60.438,66.196,64.938,66.196,71.534z M51.474,68.607h7.602
			c-0.219-1.966-1.66-3.408-3.801-3.408C53.046,65.199,51.692,66.772,51.474,68.607z"/>
		<path fill="#FFFFFF" d="M90.619,82.062h-6.99v-2.49h-0.262c-1.267,1.748-2.971,3.189-6.291,3.189
			c-3.102,0-8.824-2.621-8.824-11.184c0-6.902,4.631-10.966,9.393-10.966c2.971,0,4.762,1.442,5.723,3.015h0.262v-2.49h6.99V82.062z
			 M79.741,76.383c2.054,0,3.845-1.922,3.845-4.718c0-2.883-1.66-4.806-3.845-4.806c-2.709,0-4.02,2.403-4.02,4.762
			C75.722,74.155,76.945,76.383,79.741,76.383z"/>
		<path fill="#FFFFFF" d="M93.2,61.137h2.403v-6.684h7.383v6.684h4.587v6.203h-4.587v6.422c0,1.879,0.567,2.359,2.271,2.359
			c0.699,0,1.791-0.175,2.49-0.35v5.941c-1.354,0.394-3.364,0.655-4.587,0.655c-5.374,0-7.558-2.708-7.558-7.602V67.34H93.2V61.137z
			"/>
		<path fill="#FFFFFF" d="M110.633,50.564h7.383v6.597h-7.383V50.564z M110.633,61.137h7.383v20.926h-7.383V61.137z"/>
		<path fill="#FFFFFF" d="M133.788,82.062h-6.466l-7.732-20.926h7.645l2.054,7.252c0.524,1.879,0.961,3.932,1.354,5.985h0.175
			c0.393-2.272,0.742-3.976,1.354-5.985l2.185-7.252h7.165L133.788,82.062z"/>
		<path fill="#FFFFFF" d="M163.541,71.534c0,0.524,0,0.961-0.088,1.747h-14.679c0,2.359,1.835,4.281,4.238,4.281
			c1.572,0,2.839-0.786,3.451-1.966h6.814c-1.354,4.063-4.543,7.208-10.397,7.208c-6.028,0-11.184-4.281-11.184-11.271
			c0-6.116,3.845-11.097,11.009-11.097C159.128,60.438,163.541,64.938,163.541,71.534z M148.818,68.607h7.602
			c-0.219-1.966-1.66-3.408-3.801-3.408C150.391,65.199,149.037,66.772,148.818,68.607z"/>
		<path fill="#FFFFFF" d="M165.16,87.436c0.961-2.577,2.141-7.252,2.621-10.44l4.281-0.437c-1.005,3.713-2.927,8.562-4.15,10.615
			L165.16,87.436z"/>
		<path fill="#FFFFFF" d="M198.844,74.767c-0.219-1.048-0.743-3.014-0.83-4.543h-0.131c-0.175,1.529-0.568,3.364-1.005,5.417
			l-1.397,6.422h-8.17l-5.154-20.926h7.164l1.966,8.562c0.35,1.616,0.524,2.752,0.743,4.15h0.175
			c0.174-1.354,0.349-2.752,0.742-4.369l2.141-8.344h6.291l2.096,8.52c0.395,1.703,0.481,2.883,0.568,4.193h0.175
			c0.175-1.66,0.394-3.059,0.655-4.15l2.01-8.562h7.164l-5.416,20.926h-8.258L198.844,74.767z"/>
		<path fill="#FFFFFF" d="M214.749,50.564h7.383v6.597h-7.383V50.564z M214.749,61.137h7.383v20.926h-7.383V61.137z"/>
		<path fill="#FFFFFF" d="M223.706,61.137h2.402v-6.684h7.383v6.684h4.587v6.203h-4.587v6.422c0,1.879,0.568,2.359,2.271,2.359
			c0.699,0,1.791-0.175,2.49-0.35v5.941c-1.354,0.394-3.363,0.655-4.587,0.655c-5.374,0-7.558-2.708-7.558-7.602V67.34h-2.402
			V61.137z"/>
		<path fill="#FFFFFF" d="M239.827,50.608h7.383v13.149h0.176c1.18-2.184,3.494-3.276,5.941-3.276c5.198,0,7.775,3.626,7.775,9.698
			v11.883h-7.383V70.617c0-2.447-1.18-3.67-3.102-3.67c-1.835,0-3.408,1.397-3.408,4.106v11.009h-7.383V50.608z"/>
		<path fill="#FFFFFF" d="M288.761,74.767c-0.219-1.048-0.743-3.014-0.83-4.543H287.8c-0.176,1.529-0.568,3.364-1.006,5.417
			l-1.397,6.422h-8.169l-5.155-20.926h7.165l1.965,8.562c0.35,1.616,0.524,2.752,0.743,4.15h0.175
			c0.174-1.354,0.35-2.752,0.742-4.369l2.141-8.344h6.291l2.098,8.52c0.393,1.703,0.48,2.883,0.567,4.193h0.175
			c0.174-1.66,0.393-3.059,0.654-4.15l2.01-8.562h7.165l-5.417,20.926h-8.257L288.761,74.767z"/>
		<path fill="#FFFFFF" d="M315.106,60.438c6.641,0,11.184,4.806,11.184,11.141c0,6.159-4.586,11.227-11.184,11.227
			c-6.465,0-11.184-4.893-11.184-11.227C303.923,65.112,308.685,60.438,315.106,60.438z M315.106,76.296
			c2.49,0,3.801-2.01,3.801-4.675c0-2.533-1.223-4.674-3.801-4.674c-2.533,0-3.801,2.01-3.801,4.674
			C311.306,74.33,312.792,76.296,315.106,76.296z"/>
		<path fill="#FFFFFF" d="M344.423,67.646c-0.83-0.131-1.879-0.263-3.232-0.263c-3.801,0-5.155,2.229-5.155,5.067v9.611h-7.383
			V61.137h7.121v3.582h0.218c1.398-2.446,3.582-4.149,6.422-4.149c0.918,0,1.398,0.043,2.01,0.175V67.646z"/>
		<path fill="#FFFFFF" d="M367.798,82.062h-7.033v-1.966h-0.219c-1.224,1.267-3.232,2.708-6.291,2.708
			c-3.014,0-8.824-2.664-8.824-11.227c0-6.902,4.718-11.141,9.566-11.141c2.621,0,4.325,1.18,5.418,2.753h0.218V50.608h7.165V82.062
			z M356.919,76.427c2.055,0,3.846-1.966,3.846-4.762c0-2.883-1.66-4.979-3.846-4.979c-2.708,0-4.019,2.577-4.019,4.936
			C352.9,74.155,354.124,76.427,356.919,76.427z"/>
		<path fill="#FFFFFF" d="M378.984,67.166c0-1.442-0.743-2.098-1.835-2.098c-0.961,0-1.441,0.655-1.441,1.224
			c0,1.136,0.699,1.66,4.106,2.84c4.237,1.441,5.985,3.538,5.985,6.684c0,3.888-2.971,6.989-8.65,6.989
			c-5.811,0-8.432-2.883-8.432-7.208h6.379c0,1.616,0.655,2.578,2.141,2.578c1.004,0,1.747-0.787,1.747-1.704
			c0-1.223-1.093-1.922-3.801-2.84c-3.932-1.311-6.116-3.232-6.116-6.64c0-4.15,3.495-6.554,8.17-6.554
			c4.805,0,7.732,2.709,7.994,6.729H378.984z"/>
	</g>
</g>
</svg>
